<?xml version="1.0" encoding="UTF-8"?>
<svg width="168px" height="20px" viewBox="0 0 168 20" version="1.1" xmlns="http://www.w3.org/2000/svg" xmlns:xlink="http://www.w3.org/1999/xlink">
    <!-- Generator: sketchtool 50.2 (55047) - http://www.bohemiancoding.com/sketch -->
    <title>9752EBE6-9CA7-4BD5-AD84-E1F2174D4F8Esvg</title>
    <desc>Created with sketchtool.</desc>
    <defs></defs>
    <g id="landings---locations" stroke="none" stroke-width="1" fill="none" fill-rule="evenodd">
        <g id="landing-location-berlin_paddings_visible" transform="translate(-32.000000, -44.000000)">
            <g id="navigation/basic_navigation">
                <g id="logo_im_dark" transform="translate(32.000000, 44.000000)">
                    <path d="M111.031001,0 C110.749975,0 110.521994,0.224939934 110.521994,0.502440091 L110.521994,2.80662678 C110.521994,3.08412694 110.749975,3.30884416 111.031001,3.30884416 L117.093491,3.30884416 L117.093491,19.4183296 C117.093491,19.6958297 117.321472,19.9207697 117.602724,19.9207697 L120.291094,19.9207697 C120.572346,19.9207697 120.800327,19.6958297 120.800327,19.4183296 L120.800327,3.30884416 L126.862816,3.30884416 C127.144068,3.30884416 127.372049,3.08412694 127.372049,2.80662678 L127.372049,0.502440091 C127.372049,0.224939934 127.144068,0 126.862816,0 L111.031001,0 Z" id="Fill-15" fill="#1C2954"></path>
                    <path d="M167.459277,16.6119255 L159.061449,16.6119255 L159.061449,11.5345189 L165.422571,11.5345189 C165.703823,11.5345189 165.931804,11.309579 165.931804,11.0323016 L165.931804,8.72789216 C165.931804,8.45061472 165.703823,8.22567479 165.422571,8.22567479 L159.061449,8.22567479 L159.061449,3.30906687 L166.997672,3.30906687 C167.278924,3.30906687 167.506905,3.08412694 167.506905,2.80662678 L167.506905,0.502440091 C167.506905,0.224939934 167.278924,0 166.997672,0 L155.863846,0 C155.582594,0 155.354839,0.224939934 155.354839,0.502440091 L155.354839,19.4185523 C155.354839,19.6960524 155.582594,19.9207697 155.863846,19.9207697 L167.459277,19.9207697 C167.740529,19.9207697 167.96851,19.6960524 167.96851,19.4185523 L167.96851,17.1143656 C167.96851,16.8368654 167.740529,16.6119255 167.459277,16.6119255" id="Fill-21" fill="#1C2954"></path>
                    <path d="M152.994514,0 L152.993611,0 L150.142494,0 C149.926928,0 149.734611,0.134073109 149.662605,0.334514635 L144.855817,13.7041871 C144.761239,13.977233 144.665532,14.2863584 144.575468,14.5943702 C144.486082,14.2876947 144.390826,13.9805737 144.296925,13.7095322 L139.543408,0.336073625 C139.471628,0.134741248 139.279085,0 139.062842,0 L136.157325,0 C135.990741,0 135.83454,0.080399323 135.739511,0.215363284 C135.644255,0.350104531 135.621909,0.522484243 135.679694,0.676601505 L142.767195,19.5927137 C142.841007,19.7898145 143.031743,19.9207697 143.244827,19.9207697 L145.933197,19.9207697 C146.146506,19.9207697 146.337243,19.7895918 146.411054,19.5920456 L153.46402,0.695977519 C153.489301,0.6365132 153.503296,0.571035635 153.503296,0.502440091 C153.503296,0.224939934 153.275766,0 152.994514,0" id="Fill-19" fill="#1C2954"></path>
                    <path d="M130.245303,0 C129.964051,0 129.73607,0.224939934 129.73607,0.502440091 L129.73607,19.4183296 C129.73607,19.6958297 129.964051,19.9207697 130.245303,19.9207697 L132.933674,19.9207697 C133.214925,19.9207697 133.442906,19.6958297 133.442906,19.4183296 L133.442906,0.502440091 C133.442906,0.224939934 133.214925,0 132.933674,0 L130.245303,0 Z" id="Fill-17" fill="#1C2954"></path>
                    <path d="M100.03228,3.30934094 C103.705935,3.30934094 106.583461,6.17381187 106.583461,9.83072098 C106.583461,13.6183727 103.705935,16.5855391 100.03228,16.5855391 C96.3435017,16.5855391 93.4537858,13.6183727 93.4537858,9.83072098 C93.4537858,6.17381187 96.3435017,3.30934094 100.03228,3.30934094 M107.383652,2.83771832 C105.458228,1.00775354 102.847281,0 100.03228,0 C97.2156984,0 94.6004626,1.00753779 92.6678155,2.83707108 C90.7317826,4.66984057 89.6656891,7.15351831 89.6656891,9.83072098 C89.6656891,15.4886821 94.2192151,19.9207697 100.03228,19.9207697 C102.848184,19.9207697 105.460711,18.8823801 107.388844,16.9969684 C109.312236,15.1160873 110.371784,12.5711375 110.371784,9.83072098 C110.371784,7.15222383 109.310431,4.66876184 107.383652,2.83771832" id="Fill-12" fill="#1C2954"></path>
                    <path d="M85.5479397,0 L82.7236837,0 C82.5194036,0 82.3347616,0.120487628 82.2548553,0.306230109 L77.8557244,10.5412198 C77.6855287,10.9507887 77.5049496,11.4224944 77.346943,11.8498803 C77.1891621,11.423608 77.0094859,10.9536839 76.8404188,10.5467877 L72.4388049,0.306230109 C72.3591244,0.120487628 72.1744824,0 71.9702023,0 L69.1459463,0 C68.8804951,0 68.6597372,0.201109664 68.6385192,0.46190636 L67.8256878,10.3942294 C67.8193676,10.4719561 67.8313309,10.5503511 67.8611265,10.6227327 L70.0890203,16.0611567 C70.1675722,16.2531352 70.3560515,16.3754045 70.560783,16.3754045 C70.5865155,16.3754045 70.6126995,16.3734001 70.6391092,16.3693913 C70.8727333,16.3337572 71.0506036,16.1437832 71.0686615,15.911271 L71.7173917,7.5337061 C71.7221319,7.46533326 71.7266464,7.39540144 71.7307094,7.32435606 C71.7819487,7.45330677 71.8325108,7.57646696 71.8810414,7.6902732 C71.8835244,7.69628644 71.8862331,7.70229969 71.8891675,7.70831294 L75.6908076,15.7261967 C75.7745511,15.9028079 75.9544529,16.0157233 76.1519613,16.0157233 L78.541699,16.0157233 C78.7387559,16.0157233 78.9182063,15.9034761 79.0024013,15.727533 L82.8313539,7.7094265 C82.8333854,7.70519496 82.8354169,7.7007407 82.8374484,7.69606373 C82.8801102,7.59962909 82.9234492,7.49784933 82.9672396,7.39206075 C82.9699483,7.43883044 82.9728827,7.48493199 82.9762686,7.5303654 L83.9270172,19.4577497 C83.9477838,19.7192146 84.1687673,19.9207697 84.4344442,19.9207697 L87.0957277,19.9207697 C87.2379337,19.9207697 87.3735937,19.8621962 87.4699778,19.7590802 C87.5663618,19.6559641 87.6146667,19.5178822 87.6033805,19.3780186 L86.0553668,0.46190636 C86.0341487,0.201109664 85.8131652,0 85.5479397,0" id="Fill-10" fill="#1C2954"></path>
                    <path d="M67.4322246,19.2444162 L60.5302683,0.332918958 C60.4573595,0.1328991 60.26572,0 60.0515081,0 L60.0465422,0 L57.4895431,0.0250584162 C57.3243133,0.0266245672 57.1703697,0.107616948 57.0762429,0.242082199 C56.9821161,0.37654745 56.9595437,0.547929118 57.0157489,0.701635653 L63.9177052,19.5728604 C63.9903883,19.7715378 64.180222,19.9042132 64.3933052,19.9055556 L66.9503043,19.9207697 L66.9534644,19.9207697 C67.1186943,19.9207697 67.2739922,19.8411197 67.3692477,19.7071019 C67.465406,19.5724129 67.4888813,19.3996889 67.4322246,19.2444162" id="Fill-26" fill="#C5DE1E"></path>
                    <path d="M48.3180906,11.2799582 L50.2241023,5.9477682 C50.2250052,5.94487294 50.2259081,5.94220038 50.226811,5.93952783 C50.3207121,5.66158225 50.4225135,5.32662219 50.5204776,4.98787601 C50.6152816,5.32639947 50.7148258,5.66158225 50.8087269,5.93952783 L52.6935205,11.2799582 L48.3180906,11.2799582 Z M59.3200938,19.2483997 L52.422652,0.332287507 C52.3499689,0.132959545 52.1583294,0 51.9434404,0 L49.1194101,0 C48.904521,0 48.7128815,0.132959545 48.6401985,0.332287507 L41.7427566,19.2483997 C41.6865514,19.4022943 41.709801,19.5735604 41.8052821,19.7074108 C41.9005376,19.8410385 42.0560613,19.9207697 42.2217425,19.9207697 L44.9915991,19.9207697 C45.2089711,19.9207697 45.4021907,19.7846921 45.473068,19.5822462 L47.2556087,14.4816775 L53.7546481,14.4816775 L55.5633728,19.5842506 C55.6347015,19.7858057 55.8274696,19.9207697 56.0439387,19.9207697 L58.8411079,19.9207697 C59.0067892,19.9207697 59.1620872,19.8410385 59.2575683,19.7074108 C59.3528238,19.5735604 59.3760733,19.4022943 59.3200938,19.2483997 L59.3200938,19.2483997 Z" id="Fill-8" fill="#1C2954"></path>
                    <path d="M39.0372152,16.6119255 L30.6393874,16.6119255 L30.6393874,11.5345189 L37.0005095,11.5345189 C37.2817613,11.5345189 37.5097424,11.309579 37.5097424,11.0323016 L37.5097424,8.72789216 C37.5097424,8.45061472 37.2817613,8.22567479 37.0005095,8.22567479 L30.6393874,8.22567479 L30.6393874,3.30906687 L38.5756101,3.30906687 C38.8566362,3.30906687 39.0846172,3.08412694 39.0846172,2.80662678 L39.0846172,0.502440091 C39.0846172,0.224939934 38.8566362,0 38.5756101,0 L27.4417842,0 C27.1605323,0 26.9325513,0.224939934 26.9325513,0.502440091 L26.9325513,19.4185523 C26.9325513,19.6960524 27.1605323,19.9207697 27.4417842,19.9207697 L39.0372152,19.9207697 C39.3184671,19.9207697 39.5464481,19.6960524 39.5464481,19.4185523 L39.5464481,17.1143656 C39.5464481,16.8368654 39.3184671,16.6119255 39.0372152,16.6119255" id="Fill-6" fill="#1C2954"></path>
                    <path d="M11.2608625,3.30884416 L14.2275503,3.30884416 C16.2401036,3.30884416 17.9084281,3.89057001 19.0519448,4.99143941 C20.2351889,6.13016999 20.8604438,7.83904535 20.8604438,9.93343658 C20.8604438,12.0458676 20.2378976,13.7683284 19.0602966,14.9144085 C17.9192629,16.0248545 16.2482297,16.6117028 14.2275503,16.6117028 L11.2608625,16.6117028 L11.2608625,3.30884416 Z M14.4178355,0 L8.06325934,0 C7.78223323,0 7.5542522,0.224717221 7.5542522,0.502217378 L7.5542522,19.4183296 C7.5542522,19.6958297 7.78223323,19.9207697 8.06325934,19.9207697 L14.4178355,19.9207697 C17.4646552,19.9207697 20.0286517,19.010097 21.8321848,17.2874134 C23.674768,15.5277596 24.6485405,12.9848247 24.6485405,9.93343658 C24.6485405,6.89541119 23.6743166,4.36472558 21.8310561,2.61531648 C20.028426,0.904213993 17.4651066,0 14.4178355,0 L14.4178355,0 Z" id="Fill-4" fill="#1C2954"></path>
                    <path d="M0.509232868,0 C0.227981027,0 0,0.224939934 0,0.502440091 L0,19.4183296 C0,19.6958297 0.227981027,19.9207697 0.509232868,19.9207697 L3.1976032,19.9207697 C3.47885504,19.9207697 3.70683606,19.6958297 3.70683606,19.4183296 L3.70683606,0.502440091 C3.70683606,0.224939934 3.47885504,0 3.1976032,0 L0.509232868,0 Z" id="Fill-1" fill="#1C2954"></path>
                </g>
            </g>
        </g>
    </g>
</svg>